<svg width="18" height="18" viewBox="0 0 18 18" fill="none" xmlns="http://www.w3.org/2000/svg">
<path d="M8.99967 2.39149C10.2563 2.39149 11.2747 3.40983 11.2747 4.66649C11.2747 5.92316 10.2563 6.94149 8.99967 6.94149C7.74301 6.94149 6.72467 5.92316 6.72467 4.66649C6.72467 3.40983 7.74301 2.39149 8.99967 2.39149ZM8.99967 12.1415C12.2172 12.1415 15.608 13.7232 15.608 14.4165V15.6082H2.39134V14.4165C2.39134 13.7232 5.78217 12.1415 8.99967 12.1415ZM8.99967 0.33316C6.60551 0.33316 4.66634 2.27233 4.66634 4.66649C4.66634 7.06066 6.60551 8.99982 8.99967 8.99982C11.3938 8.99982 13.333 7.06066 13.333 4.66649C13.333 2.27233 11.3938 0.33316 8.99967 0.33316ZM8.99967 10.0832C6.10717 10.0832 0.333008 11.5348 0.333008 14.4165V17.6665H17.6663V14.4165C17.6663 11.5348 11.8922 10.0832 8.99967 10.0832Z" fill="#7C7C7C"/>
</svg>
