<svg width="38" height="38" viewBox="0 0 38 38" fill="none" xmlns="http://www.w3.org/2000/svg">
<path d="M33 15.9091C33 26.7273 19 36 19 36C19 36 5 26.7273 5 15.9091C5 12.2202 6.475 8.68234 9.1005 6.07388C11.726 3.46542 15.287 2 19 2C22.713 2 26.274 3.46542 28.8995 6.07388C31.525 8.68234 33 12.2202 33 15.9091Z" stroke="#FC6459" stroke-width="4" stroke-linecap="round" stroke-linejoin="round"/>
<path d="M19 20.5C21.6234 20.5 23.75 18.3734 23.75 15.75C23.75 13.1266 21.6234 11 19 11C16.3766 11 14.25 13.1266 14.25 15.75C14.25 18.3734 16.3766 20.5 19 20.5Z" stroke="#FC6459" stroke-width="4" stroke-linecap="round" stroke-linejoin="round"/>
</svg>
