<svg width="38" height="38" viewBox="0 0 38 38" fill="none" xmlns="http://www.w3.org/2000/svg">
<path d="M34.8333 26.7901V31.5401C34.8351 31.981 34.7447 32.4175 34.5681 32.8215C34.3914 33.2256 34.1323 33.5882 33.8074 33.8863C33.4825 34.1844 33.0988 34.4114 32.6811 34.5527C32.2634 34.6939 31.8208 34.7464 31.3816 34.7067C26.5094 34.1773 21.8294 32.5124 17.7174 29.8459C13.8918 27.4149 10.6484 24.1715 8.21744 20.3459C5.54157 16.2153 3.87632 11.5125 3.3566 6.61839C3.31703 6.18054 3.36907 5.73926 3.50939 5.32262C3.64972 4.90599 3.87526 4.52314 4.17165 4.19845C4.46804 3.87376 4.82879 3.61434 5.23094 3.43671C5.63308 3.25908 6.06781 3.16713 6.50744 3.16672H11.2574C12.0258 3.15916 12.7708 3.43126 13.3534 3.93231C13.936 4.43336 14.3166 5.12918 14.4241 5.89005C14.6246 7.41016 14.9964 8.9027 15.5324 10.3392C15.7455 10.9059 15.7916 11.5218 15.6653 12.1139C15.539 12.7061 15.2456 13.2496 14.8199 13.6801L12.8091 15.6909C15.0631 19.6548 18.3452 22.9369 22.3091 25.1909L24.3199 23.1801C24.7504 22.7544 25.2939 22.461 25.886 22.3347C26.4782 22.2084 27.0941 22.2545 27.6608 22.4676C29.0973 23.0036 30.5898 23.3754 32.1099 23.5759C32.8791 23.6844 33.5815 24.0718 34.0836 24.6644C34.5857 25.257 34.8525 26.0135 34.8333 26.7901Z" stroke="#FC6459" stroke-width="4" stroke-linecap="round" stroke-linejoin="round"/>
</svg>
