<svg width="21" height="20" viewBox="0 0 21 20" fill="none" xmlns="http://www.w3.org/2000/svg">
<path d="M9.5455 1.05516C9.83784 0.119434 11.1622 0.119435 11.4545 1.05516L13.0872 6.28099C13.2176 6.6985 13.6043 6.98278 14.0417 6.98278H19.406C20.3652 6.98278 20.7742 8.20236 20.0089 8.78063L15.6024 12.1102C15.2656 12.3647 15.1249 12.8033 15.2508 13.2062L16.9178 18.5421C17.2078 19.4703 16.1364 20.2244 15.3605 19.6381L11.1029 16.4211C10.7461 16.1515 10.2539 16.1515 9.89714 16.4211L5.63954 19.6381C4.86363 20.2244 3.79218 19.4703 4.08218 18.5421L5.74923 13.2062C5.87512 12.8033 5.73441 12.3647 5.39759 12.1102L0.991144 8.78063C0.225846 8.20236 0.634802 6.98278 1.594 6.98278H6.95833C7.39574 6.98278 7.78239 6.6985 7.91283 6.28099L9.5455 1.05516Z" fill="#FCD32D"/>
</svg>
