<svg width="90" height="92" viewBox="0 0 90 92" fill="none" xmlns="http://www.w3.org/2000/svg">
<path d="M49.2851 77.067C37.1162 82.1006 25.6027 92.8145 13.4586 91.036C1.00908 89.2128 -6.90553 78.3265 -13.1221 67.9276C-19.0724 57.9743 -22.2295 46.2345 -20.7338 33.8404C-19.285 21.8354 -12.4335 10.9155 -4.9921 0.559341C2.70123 -10.1473 10.4523 -22.7233 22.6718 -26.5665C34.732 -30.3597 45.2155 -22.4786 56.2392 -18.6991C66.4132 -15.2108 78.2718 -13.9478 84.4217 -5.39487C90.6226 3.22911 89.1231 15.417 88.9096 26.7372C88.6824 38.7759 91.1275 52.0722 83.1461 62.2099C75.1852 72.3216 60.9343 72.2483 49.2851 77.067Z" fill="#FCD32D"/>
</svg>
